<svg width="28" height="28" viewBox="0 0 28 28" fill="none" xmlns="http://www.w3.org/2000/svg">
<path d="M5.08877 20.7581C4.52891 21.318 4.51749 22.312 5.10019 22.8947C5.69433 23.4774 6.68837 23.466 7.23679 22.9176L14.0008 16.1536L20.7533 22.9061C21.3246 23.4774 22.3072 23.4774 22.8899 22.8947C23.4726 22.3006 23.4726 21.3294 22.9014 20.7581L16.1488 14.0056L22.9014 7.24157C23.4726 6.67029 23.4841 5.68769 22.8899 5.10497C22.3072 4.52227 21.3246 4.52227 20.7533 5.09355L14.0008 11.8461L7.23679 5.09355C6.68837 4.53369 5.68291 4.51085 5.10019 5.10497C4.51749 5.68769 4.52891 6.69315 5.08877 7.24157L11.8413 14.0056L5.08877 20.7581Z" fill="black"/>
</svg>
